<svg width="706" height="109" viewBox="0 0 706 109" fill="none" xmlns="http://www.w3.org/2000/svg">
<rect width="706" height="109" fill="#F9F3F3"/>
<path d="M118.579 60L114.602 45.4545H116.392L119.431 57.3011H119.574L122.67 45.4545H124.659L127.755 57.3011H127.897L130.937 45.4545H132.727L128.75 60H126.931L123.721 48.4091H123.608L120.397 60H118.579ZM136.37 53.4375V60H134.694V45.4545H136.37V50.7955H136.512C136.768 50.232 137.152 49.7846 137.663 49.4531C138.179 49.117 138.866 48.9489 139.723 48.9489C140.466 48.9489 141.117 49.098 141.676 49.3963C142.234 49.6899 142.668 50.142 142.975 50.7528C143.288 51.3589 143.444 52.1307 143.444 53.0682V60H141.768V53.1818C141.768 52.3153 141.543 51.6454 141.093 51.1719C140.648 50.6937 140.03 50.4545 139.24 50.4545C138.69 50.4545 138.198 50.5705 137.762 50.8026C137.332 51.0346 136.991 51.3731 136.74 51.8182C136.493 52.2633 136.37 52.803 136.37 53.4375ZM151.085 60.2273C150.033 60.2273 149.127 59.9953 148.364 59.5312C147.607 59.0625 147.022 58.4091 146.61 57.571C146.203 56.7282 145.999 55.7481 145.999 54.6307C145.999 53.5133 146.203 52.5284 146.61 51.6761C147.022 50.8191 147.595 50.1515 148.329 49.6733C149.067 49.1903 149.929 48.9489 150.914 48.9489C151.482 48.9489 152.043 49.0436 152.597 49.233C153.151 49.4223 153.656 49.7301 154.11 50.1562C154.565 50.5777 154.927 51.1364 155.197 51.8324C155.467 52.5284 155.602 53.3854 155.602 54.4034V55.1136H147.192V53.6648H153.897C153.897 53.0492 153.774 52.5 153.528 52.017C153.286 51.5341 152.941 51.1529 152.491 50.8736C152.046 50.5942 151.52 50.4545 150.914 50.4545C150.246 50.4545 149.669 50.6203 149.181 50.9517C148.698 51.2784 148.326 51.7045 148.066 52.2301C147.806 52.7557 147.675 53.3191 147.675 53.9205V54.8864C147.675 55.7102 147.817 56.4086 148.102 56.9815C148.39 57.5497 148.79 57.983 149.302 58.2812C149.813 58.5748 150.407 58.7216 151.085 58.7216C151.525 58.7216 151.923 58.66 152.278 58.5369C152.638 58.4091 152.948 58.2197 153.208 57.9688C153.469 57.7131 153.67 57.3958 153.812 57.017L155.431 57.4716C155.261 58.0208 154.974 58.5038 154.572 58.9205C154.169 59.3324 153.672 59.6544 153.08 59.8864C152.488 60.1136 151.823 60.2273 151.085 60.2273ZM159.827 53.4375V60H158.151V49.0909H159.771V50.7955H159.913C160.168 50.2415 160.557 49.7964 161.077 49.4602C161.598 49.1193 162.271 48.9489 163.094 48.9489C163.833 48.9489 164.479 49.1004 165.033 49.4034C165.587 49.7017 166.018 50.1562 166.326 50.767C166.634 51.3731 166.788 52.1402 166.788 53.0682V60H165.112V53.1818C165.112 52.3248 164.889 51.6572 164.444 51.179C163.999 50.696 163.388 50.4545 162.612 50.4545C162.076 50.4545 161.598 50.5705 161.177 50.8026C160.76 51.0346 160.431 51.3731 160.19 51.8182C159.948 52.2633 159.827 52.803 159.827 53.4375ZM177.947 60L174.623 49.0909H176.385L178.743 57.4432H178.856L181.186 49.0909H182.975L185.277 57.4148H185.39L187.748 49.0909H189.51L186.186 60H184.538L182.152 51.6193H181.981L179.595 60H177.947ZM191.725 60V49.0909H193.402V60H191.725ZM192.578 47.2727C192.251 47.2727 191.969 47.1615 191.733 46.9389C191.501 46.7164 191.385 46.4489 191.385 46.1364C191.385 45.8239 191.501 45.5563 191.733 45.3338C191.969 45.1113 192.251 45 192.578 45C192.904 45 193.184 45.1113 193.416 45.3338C193.653 45.5563 193.771 45.8239 193.771 46.1364C193.771 46.4489 193.653 46.7164 193.416 46.9389C193.184 47.1615 192.904 47.2727 192.578 47.2727ZM198.148 45.4545V60H196.472V45.4545H198.148ZM202.894 45.4545V60H201.218V45.4545H202.894ZM213.577 45.4545V60H211.816V45.4545H213.577ZM222.507 60V49.0909H224.126V50.7955H224.268C224.495 50.2131 224.862 49.7609 225.369 49.4389C225.876 49.1122 226.484 48.9489 227.194 48.9489C227.914 48.9489 228.513 49.1122 228.991 49.4389C229.474 49.7609 229.85 50.2131 230.12 50.7955H230.234C230.513 50.232 230.932 49.7846 231.491 49.4531C232.05 49.117 232.72 48.9489 233.501 48.9489C234.476 48.9489 235.274 49.2543 235.895 49.8651C236.515 50.4711 236.825 51.4157 236.825 52.6989V60H235.149V52.6989C235.149 51.8939 234.929 51.3187 234.488 50.973C234.048 50.6274 233.529 50.4545 232.933 50.4545C232.166 50.4545 231.572 50.6866 231.15 51.1506C230.729 51.6098 230.518 52.1922 230.518 52.8977V60H228.814V52.5284C228.814 51.9081 228.612 51.4086 228.21 51.0298C227.807 50.6463 227.289 50.4545 226.654 50.4545C226.219 50.4545 225.812 50.5705 225.433 50.8026C225.059 51.0346 224.756 51.3565 224.524 51.7685C224.297 52.1757 224.183 52.6468 224.183 53.1818V60H222.507ZM244.463 60.2273C243.412 60.2273 242.506 59.9953 241.743 59.5312C240.986 59.0625 240.401 58.4091 239.989 57.571C239.582 56.7282 239.378 55.7481 239.378 54.6307C239.378 53.5133 239.582 52.5284 239.989 51.6761C240.401 50.8191 240.974 50.1515 241.708 49.6733C242.446 49.1903 243.308 48.9489 244.293 48.9489C244.861 48.9489 245.422 49.0436 245.976 49.233C246.53 49.4223 247.034 49.7301 247.489 50.1562C247.944 50.5777 248.306 51.1364 248.576 51.8324C248.846 52.5284 248.98 53.3854 248.98 54.4034V55.1136H240.571V53.6648H247.276C247.276 53.0492 247.153 52.5 246.907 52.017C246.665 51.5341 246.319 51.1529 245.87 50.8736C245.425 50.5942 244.899 50.4545 244.293 50.4545C243.625 50.4545 243.048 50.6203 242.56 50.9517C242.077 51.2784 241.705 51.7045 241.445 52.2301C241.185 52.7557 241.054 53.3191 241.054 53.9205V54.8864C241.054 55.7102 241.196 56.4086 241.48 56.9815C241.769 57.5497 242.169 57.983 242.681 58.2812C243.192 58.5748 243.786 58.7216 244.463 58.7216C244.904 58.7216 245.301 58.66 245.657 58.5369C246.016 58.4091 246.327 58.2197 246.587 57.9688C246.847 57.7131 247.049 57.3958 247.191 57.017L248.81 57.4716C248.64 58.0208 248.353 58.5038 247.951 58.9205C247.548 59.3324 247.051 59.6544 246.459 59.8864C245.867 60.1136 245.202 60.2273 244.463 60.2273ZM256.104 60.2273C255.053 60.2273 254.146 59.9953 253.384 59.5312C252.626 59.0625 252.042 58.4091 251.63 57.571C251.222 56.7282 251.019 55.7481 251.019 54.6307C251.019 53.5133 251.222 52.5284 251.63 51.6761C252.042 50.8191 252.614 50.1515 253.348 49.6733C254.087 49.1903 254.949 48.9489 255.934 48.9489C256.502 48.9489 257.063 49.0436 257.617 49.233C258.171 49.4223 258.675 49.7301 259.13 50.1562C259.584 50.5777 259.946 51.1364 260.216 51.8324C260.486 52.5284 260.621 53.3854 260.621 54.4034V55.1136H252.212V53.6648H258.917C258.917 53.0492 258.793 52.5 258.547 52.017C258.306 51.5341 257.96 51.1529 257.51 50.8736C257.065 50.5942 256.54 50.4545 255.934 50.4545C255.266 50.4545 254.688 50.6203 254.201 50.9517C253.718 51.2784 253.346 51.7045 253.086 52.2301C252.825 52.7557 252.695 53.3191 252.695 53.9205V54.8864C252.695 55.7102 252.837 56.4086 253.121 56.9815C253.41 57.5497 253.81 57.983 254.321 58.2812C254.833 58.5748 255.427 58.7216 256.104 58.7216C256.544 58.7216 256.942 58.66 257.297 58.5369C257.657 58.4091 257.967 58.2197 258.228 57.9688C258.488 57.7131 258.689 57.3958 258.831 57.017L260.451 57.4716C260.28 58.0208 259.994 58.5038 259.591 58.9205C259.189 59.3324 258.692 59.6544 258.1 59.8864C257.508 60.1136 256.843 60.2273 256.104 60.2273ZM267.915 49.0909V50.5114H262.262V49.0909H267.915ZM263.909 46.4773H265.586V56.875C265.586 57.3485 265.654 57.7036 265.792 57.9403C265.934 58.1723 266.114 58.3286 266.331 58.4091C266.554 58.4848 266.788 58.5227 267.034 58.5227C267.219 58.5227 267.371 58.5133 267.489 58.4943C267.607 58.4706 267.702 58.4517 267.773 58.4375L268.114 59.9432C268 59.9858 267.842 60.0284 267.638 60.071C267.435 60.1184 267.176 60.142 266.864 60.142C266.391 60.142 265.926 60.0402 265.472 59.8366C265.022 59.633 264.648 59.3229 264.35 58.9062C264.056 58.4896 263.909 57.964 263.909 57.3295V46.4773ZM277.141 64.0909C276.857 64.0909 276.604 64.0672 276.381 64.0199C276.158 63.9773 276.005 63.9347 275.919 63.892L276.346 62.4148C276.753 62.5189 277.113 62.5568 277.425 62.5284C277.738 62.5 278.015 62.3603 278.256 62.1094C278.502 61.8632 278.727 61.4631 278.931 60.9091L279.243 60.0568L275.209 49.0909H277.027L280.039 57.7841H280.152L283.164 49.0909H284.982L280.351 61.5909C280.143 62.1544 279.885 62.6207 279.577 62.9901C279.269 63.3641 278.912 63.6411 278.505 63.821C278.102 64.0009 277.648 64.0909 277.141 64.0909ZM291.235 60.2273C290.251 60.2273 289.386 59.9929 288.643 59.5241C287.904 59.0554 287.327 58.3996 286.91 57.5568C286.498 56.714 286.292 55.7292 286.292 54.6023C286.292 53.4659 286.498 52.474 286.91 51.6264C287.327 50.7789 287.904 50.1207 288.643 49.652C289.386 49.1832 290.251 48.9489 291.235 48.9489C292.22 48.9489 293.082 49.1832 293.821 49.652C294.564 50.1207 295.142 50.7789 295.554 51.6264C295.97 52.474 296.179 53.4659 296.179 54.6023C296.179 55.7292 295.97 56.714 295.554 57.5568C295.142 58.3996 294.564 59.0554 293.821 59.5241C293.082 59.9929 292.22 60.2273 291.235 60.2273ZM291.235 58.7216C291.984 58.7216 292.599 58.5298 293.082 58.1463C293.565 57.7628 293.922 57.2585 294.154 56.6335C294.386 56.0085 294.502 55.3314 294.502 54.6023C294.502 53.8731 294.386 53.1937 294.154 52.5639C293.922 51.9342 293.565 51.4252 293.082 51.0369C292.599 50.6487 291.984 50.4545 291.235 50.4545C290.487 50.4545 289.872 50.6487 289.389 51.0369C288.906 51.4252 288.548 51.9342 288.316 52.5639C288.084 53.1937 287.968 53.8731 287.968 54.6023C287.968 55.3314 288.084 56.0085 288.316 56.6335C288.548 57.2585 288.906 57.7628 289.389 58.1463C289.872 58.5298 290.487 58.7216 291.235 58.7216ZM305.612 55.5398V49.0909H307.288V60H305.612V58.1534H305.499C305.243 58.7074 304.845 59.1785 304.305 59.5668C303.766 59.9503 303.084 60.142 302.26 60.142C301.578 60.142 300.972 59.9929 300.442 59.6946C299.911 59.3916 299.495 58.937 299.192 58.331C298.889 57.7202 298.737 56.9508 298.737 56.0227V49.0909H300.413V55.9091C300.413 56.7045 300.636 57.339 301.081 57.8125C301.531 58.286 302.104 58.5227 302.8 58.5227C303.216 58.5227 303.64 58.4162 304.071 58.2031C304.507 57.9901 304.871 57.6634 305.165 57.223C305.463 56.7827 305.612 56.2216 305.612 55.5398Z" fill="#DB9F9F"/>
<path d="M453.792 27.784H455.072V42.248H453.792V27.784ZM451.344 33.576H454.128V34.68H451.344V33.576ZM450.512 28.104H451.76V41.512H450.512V28.104ZM443.312 37.576H444.256C446.368 37.576 447.808 37.496 449.488 37.144L449.616 38.248C447.888 38.616 446.432 38.68 444.256 38.68H443.312V37.576ZM443.312 29.544H448.688V30.632H444.624V38.072H443.312V29.544ZM461.135 35.624H462.463V39.752H461.135V35.624ZM465.599 35.624H466.911V39.752H465.599V35.624ZM457.519 39.4H470.623V40.504H457.519V39.4ZM458.655 29.112H469.391V30.2H458.655V29.112ZM458.687 34.904H469.375V35.976H458.687V34.904ZM460.911 29.992H462.239V35.128H460.911V29.992ZM465.839 29.992H467.151V35.128H465.839V29.992ZM478.142 41.0909C477.862 41.0909 477.621 40.9905 477.42 40.7898C477.22 40.589 477.119 40.3485 477.119 40.0682C477.119 39.7879 477.22 39.5473 477.42 39.3466C477.621 39.1458 477.862 39.0455 478.142 39.0455C478.422 39.0455 478.663 39.1458 478.864 39.3466C479.064 39.5473 479.165 39.7879 479.165 40.0682C479.165 40.2538 479.117 40.4242 479.023 40.5795C478.932 40.7348 478.809 40.8598 478.653 40.9545C478.502 41.0455 478.331 41.0909 478.142 41.0909ZM478.142 34.6136C477.862 34.6136 477.621 34.5133 477.42 34.3125C477.22 34.1117 477.119 33.8712 477.119 33.5909C477.119 33.3106 477.22 33.0701 477.42 32.8693C477.621 32.6686 477.862 32.5682 478.142 32.5682C478.422 32.5682 478.663 32.6686 478.864 32.8693C479.064 33.0701 479.165 33.3106 479.165 33.5909C479.165 33.7765 479.117 33.947 479.023 34.1023C478.932 34.2576 478.809 34.3826 478.653 34.4773C478.502 34.5682 478.331 34.6136 478.142 34.6136ZM492.844 31.8H496.812V32.872H492.844V31.8ZM496.204 27.8H497.532V38.44H496.204V27.8ZM488.3 40.84H497.932V41.928H488.3V40.84ZM488.3 37.368H489.628V41.304H488.3V37.368ZM489.58 28.712C491.708 28.712 493.308 30.2 493.308 32.296C493.308 34.392 491.708 35.88 489.58 35.88C487.452 35.88 485.852 34.392 485.852 32.296C485.852 30.2 487.452 28.712 489.58 28.712ZM489.58 29.88C488.172 29.88 487.132 30.872 487.132 32.296C487.132 33.72 488.172 34.712 489.58 34.712C490.972 34.712 492.028 33.72 492.028 32.296C492.028 30.872 490.972 29.88 489.58 29.88ZM511.355 27.784H512.635V42.248H511.355V27.784ZM506.091 32.968H508.859V34.072H506.091V32.968ZM508.459 28.12H509.707V41.512H508.459V28.12ZM503.307 30.024H504.331V31.864C504.331 35.032 503.115 38.024 500.987 39.368L500.171 38.376C502.187 37.16 503.307 34.52 503.307 31.864V30.024ZM503.579 30.024H504.603V31.864C504.603 34.376 505.691 36.888 507.675 38.04L506.859 39.016C504.747 37.736 503.579 34.888 503.579 31.864V30.024ZM500.571 29.464H507.179V30.568H500.571V29.464ZM515.673 29.08H522.313V35.784H515.673V29.08ZM521.017 30.152H516.969V34.712H521.017V30.152ZM524.969 27.768H526.297V38.376H524.969V27.768ZM525.881 32.184H528.441V33.288H525.881V32.184ZM517.289 40.84H526.953V41.928H517.289V40.84ZM517.289 37.368H518.617V41.304H517.289V37.368ZM540.552 33.544H543.224V34.664H540.552V33.544ZM539.576 27.768H540.92V42.248H539.576V27.768ZM530.36 29.192H531.688V38.152H530.36V29.192ZM530.36 37.464H531.512C533.656 37.464 535.848 37.32 538.232 36.824L538.392 37.928C535.928 38.44 533.704 38.584 531.512 38.584H530.36V37.464ZM544.519 39.288H557.623V40.392H544.519V39.288ZM550.407 35.784H551.719V39.656H550.407V35.784ZM550.375 29.608H551.495V30.504C551.495 33.464 548.535 35.704 545.687 36.296L545.143 35.24C547.639 34.824 550.375 32.792 550.375 30.504V29.608ZM550.615 29.608H551.735V30.504C551.735 32.792 554.487 34.776 557.015 35.192L556.487 36.248C553.591 35.672 550.615 33.464 550.615 30.504V29.608ZM545.591 29.096H556.519V30.184H545.591V29.096ZM450.464 50.768H454.112V51.856H450.464V50.768ZM453.36 46.8H454.688V57.392H453.36V46.8ZM445.456 59.84H455.088V60.928H445.456V59.84ZM445.456 56.464H446.784V60.4H445.456V56.464ZM446.48 48.592H447.568V49.76C447.568 52.384 445.936 54.656 443.52 55.552L442.832 54.496C444.992 53.728 446.48 51.808 446.48 49.76V48.592ZM446.736 48.592H447.808V49.744C447.808 51.616 449.216 53.44 451.312 54.176L450.64 55.216C448.288 54.368 446.736 52.192 446.736 49.744V48.592ZM443.248 47.968H450.976V49.04H443.248V47.968ZM461.263 55.408H462.591V57.76H461.263V55.408ZM467.343 46.784H468.671V61.248H467.343V46.784ZM468.239 52.928H470.911V54.048H468.239V52.928ZM457.535 58.496L457.343 57.392C459.935 57.392 463.471 57.36 466.463 56.928L466.575 57.92C463.455 58.48 460.063 58.496 457.535 58.496ZM457.583 48.528H466.239V49.6H457.583V48.528ZM461.919 50.448C463.935 50.448 465.327 51.504 465.327 53.12C465.327 54.752 463.935 55.792 461.919 55.792C459.903 55.792 458.527 54.752 458.527 53.12C458.527 51.504 459.903 50.448 461.919 50.448ZM461.919 51.472C460.623 51.472 459.775 52.128 459.775 53.12C459.775 54.112 460.623 54.768 461.919 54.768C463.215 54.768 464.079 54.112 464.079 53.12C464.079 52.128 463.215 51.472 461.919 51.472ZM461.263 46.8H462.591V49.248H461.263V46.8ZM479.054 50.864H483.214V51.952H479.054V50.864ZM482.798 46.8H484.126V57.504H482.798V46.8ZM474.83 59.84H484.478V60.928H474.83V59.84ZM474.83 56.464H476.158V60.4H474.83V56.464ZM472.942 47.744H474.254V50.304H478.174V47.744H479.47V55.04H472.942V47.744ZM474.254 51.344V53.952H478.174V51.344H474.254ZM487.596 48.896H499.34V49.984H487.596V48.896ZM486.956 58.464H500.06V59.568H486.956V58.464ZM492.828 56.176H494.14V58.896H492.828V56.176ZM493.468 50.96C496.396 50.96 498.204 51.968 498.204 53.712C498.204 55.456 496.396 56.464 493.468 56.464C490.556 56.464 488.748 55.456 488.748 53.712C488.748 51.968 490.556 50.96 493.468 50.96ZM493.468 52C491.372 52 490.076 52.64 490.076 53.712C490.076 54.784 491.372 55.408 493.468 55.408C495.58 55.408 496.86 54.784 496.86 53.712C496.86 52.64 495.58 52 493.468 52ZM492.828 47.024H494.14V49.568H492.828V47.024ZM507.58 58.5114C507.299 58.5114 507.059 58.411 506.858 58.2102C506.657 58.0095 506.557 57.7689 506.557 57.4886C506.557 57.2083 506.657 56.9678 506.858 56.767C507.059 56.5663 507.299 56.4659 507.58 56.4659C507.86 56.4659 508.1 56.5663 508.301 56.767C508.502 56.9678 508.602 57.2083 508.602 57.4886C508.602 57.6742 508.555 57.8447 508.46 58C508.369 58.1553 508.246 58.2803 508.091 58.375C507.939 58.4659 507.769 58.5114 507.58 58.5114ZM507.58 52.625C507.299 52.625 507.059 52.5246 506.858 52.3239C506.657 52.1231 506.557 51.8826 506.557 51.6023C506.557 51.322 506.657 51.0814 506.858 50.8807C507.059 50.6799 507.299 50.5795 507.58 50.5795C507.86 50.5795 508.1 50.6799 508.301 50.8807C508.502 51.0814 508.602 51.322 508.602 51.6023C508.602 51.7879 508.555 51.9583 508.46 52.1136C508.369 52.2689 508.246 52.3939 508.091 52.4886C507.939 52.5795 507.769 52.625 507.58 52.625ZM519.281 60.1591C518.425 60.1591 517.696 59.9261 517.094 59.4602C516.491 58.9905 516.031 58.3106 515.713 57.4205C515.395 56.5265 515.236 55.447 515.236 54.1818C515.236 52.9242 515.395 51.8504 515.713 50.9602C516.035 50.0663 516.497 49.3845 517.099 48.9148C517.705 48.4413 518.433 48.2045 519.281 48.2045C520.13 48.2045 520.855 48.4413 521.457 48.9148C522.063 49.3845 522.526 50.0663 522.844 50.9602C523.166 51.8504 523.327 52.9242 523.327 54.1818C523.327 55.447 523.168 56.5265 522.849 57.4205C522.531 58.3106 522.071 58.9905 521.469 59.4602C520.866 59.9261 520.137 60.1591 519.281 60.1591ZM519.281 58.9091C520.13 58.9091 520.789 58.5 521.259 57.6818C521.728 56.8636 521.963 55.697 521.963 54.1818C521.963 53.1742 521.855 52.3163 521.639 51.608C521.427 50.8996 521.12 50.3598 520.719 49.9886C520.321 49.6174 519.842 49.4318 519.281 49.4318C518.44 49.4318 517.783 49.8466 517.31 50.6761C516.836 51.5019 516.599 52.6705 516.599 54.1818C516.599 55.1894 516.705 56.0455 516.918 56.75C517.13 57.4545 517.435 57.9905 517.832 58.358C518.234 58.7254 518.717 58.9091 519.281 58.9091ZM529.577 48.3636V60H528.168V49.8409H528.099L525.259 51.7273V50.2955L528.168 48.3636H529.577ZM536.719 60.1591C535.863 60.1591 535.134 59.9261 534.531 59.4602C533.929 58.9905 533.469 58.3106 533.151 57.4205C532.832 56.5265 532.673 55.447 532.673 54.1818C532.673 52.9242 532.832 51.8504 533.151 50.9602C533.473 50.0663 533.935 49.3845 534.537 48.9148C535.143 48.4413 535.87 48.2045 536.719 48.2045C537.567 48.2045 538.293 48.4413 538.895 48.9148C539.501 49.3845 539.963 50.0663 540.281 50.9602C540.603 51.8504 540.764 52.9242 540.764 54.1818C540.764 55.447 540.605 56.5265 540.287 57.4205C539.969 58.3106 539.509 58.9905 538.906 59.4602C538.304 59.9261 537.575 60.1591 536.719 60.1591ZM536.719 58.9091C537.567 58.9091 538.226 58.5 538.696 57.6818C539.166 56.8636 539.401 55.697 539.401 54.1818C539.401 53.1742 539.293 52.3163 539.077 51.608C538.865 50.8996 538.558 50.3598 538.156 49.9886C537.759 49.6174 537.279 49.4318 536.719 49.4318C535.878 49.4318 535.221 49.8466 534.747 50.6761C534.274 51.5019 534.037 52.6705 534.037 54.1818C534.037 55.1894 534.143 56.0455 534.355 56.75C534.567 57.4545 534.872 57.9905 535.27 58.358C535.671 58.7254 536.154 58.9091 536.719 58.9091ZM547.946 53.5568V54.8068H542.855V53.5568H547.946ZM553.987 48.2045C554.464 48.2083 554.942 48.2992 555.419 48.4773C555.896 48.6553 556.332 48.9508 556.726 49.3636C557.12 49.7727 557.436 50.3314 557.675 51.0398C557.913 51.7481 558.033 52.6364 558.033 53.7045C558.033 54.7386 557.934 55.6572 557.737 56.4602C557.544 57.2595 557.264 57.9337 556.896 58.483C556.533 59.0322 556.089 59.4489 555.567 59.733C555.048 60.017 554.461 60.1591 553.805 60.1591C553.154 60.1591 552.572 60.0303 552.061 59.7727C551.554 59.5114 551.137 59.1496 550.811 58.6875C550.489 58.2216 550.283 57.6818 550.192 57.0682H551.578C551.703 57.6023 551.951 58.0436 552.322 58.392C552.697 58.7367 553.192 58.9091 553.805 58.9091C554.703 58.9091 555.411 58.517 555.93 57.733C556.453 56.9489 556.714 55.8409 556.714 54.4091H556.624C556.411 54.7273 556.16 55.0019 555.868 55.233C555.576 55.464 555.252 55.642 554.896 55.767C554.54 55.892 554.161 55.9545 553.76 55.9545C553.093 55.9545 552.482 55.7898 551.925 55.4602C551.372 55.1269 550.929 54.6705 550.595 54.0909C550.266 53.5076 550.101 52.8409 550.101 52.0909C550.101 51.3788 550.26 50.7273 550.578 50.1364C550.9 49.5417 551.351 49.0682 551.93 48.7159C552.514 48.3636 553.199 48.1932 553.987 48.2045ZM553.987 49.4545C553.51 49.4545 553.08 49.5739 552.697 49.8125C552.319 50.0473 552.018 50.3655 551.794 50.767C551.574 51.1648 551.464 51.6061 551.464 52.0909C551.464 52.5758 551.571 53.017 551.783 53.4148C551.999 53.8087 552.292 54.1231 552.663 54.358C553.038 54.589 553.464 54.7045 553.942 54.7045C554.302 54.7045 554.637 54.6345 554.947 54.4943C555.258 54.3504 555.529 54.1553 555.76 53.9091C555.995 53.6591 556.179 53.3769 556.311 53.0625C556.444 52.7443 556.51 52.4129 556.51 52.0682C556.51 51.6136 556.4 51.1875 556.18 50.7898C555.964 50.392 555.665 50.0701 555.283 49.8239C554.904 49.5777 554.472 49.4545 553.987 49.4545ZM563.994 60.1591C563.214 60.1591 562.525 60.0208 561.926 59.7443C561.331 59.464 560.867 59.0795 560.534 58.5909C560.201 58.0985 560.036 57.5379 560.04 56.9091C560.036 56.4167 560.133 55.9621 560.33 55.5455C560.527 55.125 560.795 54.7746 561.136 54.4943C561.481 54.2102 561.866 54.0303 562.29 53.9545V53.8864C561.733 53.7424 561.29 53.4299 560.96 52.9489C560.631 52.464 560.468 51.9129 560.472 51.2955C560.468 50.7045 560.617 50.1761 560.92 49.7102C561.223 49.2443 561.64 48.8769 562.17 48.608C562.705 48.339 563.313 48.2045 563.994 48.2045C564.669 48.2045 565.271 48.339 565.801 48.608C566.331 48.8769 566.748 49.2443 567.051 49.7102C567.358 50.1761 567.513 50.7045 567.517 51.2955C567.513 51.9129 567.345 52.464 567.011 52.9489C566.682 53.4299 566.244 53.7424 565.699 53.8864V53.9545C566.119 54.0303 566.498 54.2102 566.835 54.4943C567.172 54.7746 567.441 55.125 567.642 55.5455C567.843 55.9621 567.945 56.4167 567.949 56.9091C567.945 57.5379 567.775 58.0985 567.438 58.5909C567.104 59.0795 566.64 59.464 566.045 59.7443C565.455 60.0208 564.771 60.1591 563.994 60.1591ZM563.994 58.9091C564.521 58.9091 564.975 58.8239 565.358 58.6534C565.741 58.483 566.036 58.2424 566.244 57.9318C566.453 57.6212 566.559 57.2576 566.562 56.8409C566.559 56.4015 566.445 56.0133 566.222 55.6761C565.998 55.339 565.693 55.0739 565.307 54.8807C564.924 54.6875 564.487 54.5909 563.994 54.5909C563.498 54.5909 563.055 54.6875 562.665 54.8807C562.278 55.0739 561.973 55.339 561.75 55.6761C561.53 56.0133 561.422 56.4015 561.426 56.8409C561.422 57.2576 561.523 57.6212 561.727 57.9318C561.936 58.2424 562.233 58.483 562.619 58.6534C563.006 58.8239 563.464 58.9091 563.994 58.9091ZM563.994 53.3864C564.411 53.3864 564.78 53.303 565.102 53.1364C565.428 52.9697 565.684 52.7367 565.869 52.4375C566.055 52.1383 566.15 51.7879 566.153 51.3864C566.15 50.9924 566.057 50.6496 565.875 50.358C565.693 50.0625 565.441 49.8352 565.119 49.6761C564.797 49.5133 564.422 49.4318 563.994 49.4318C563.559 49.4318 563.178 49.5133 562.852 49.6761C562.527 49.8352 562.275 50.0625 562.097 50.358C561.919 50.6496 561.831 50.9924 561.835 51.3864C561.831 51.7879 561.92 52.1383 562.102 52.4375C562.288 52.7367 562.544 52.9697 562.869 53.1364C563.195 53.303 563.57 53.3864 563.994 53.3864ZM570.49 60L575.695 49.7045V49.6136H569.695V48.3636H577.149V49.6818L571.967 60H570.49ZM582.881 60.1591C582.403 60.1515 581.926 60.0606 581.449 59.8864C580.972 59.7121 580.536 59.4186 580.142 59.0057C579.748 58.589 579.432 58.0265 579.193 57.3182C578.955 56.6061 578.835 55.7121 578.835 54.6364C578.835 53.6061 578.932 52.6932 579.125 51.8977C579.318 51.0985 579.598 50.4261 579.966 49.8807C580.333 49.3314 580.777 48.9148 581.295 48.6307C581.818 48.3466 582.407 48.2045 583.062 48.2045C583.714 48.2045 584.294 48.3352 584.801 48.5966C585.313 48.8542 585.729 49.214 586.051 49.6761C586.373 50.1383 586.581 50.6705 586.676 51.2727H585.29C585.161 50.75 584.911 50.3163 584.54 49.9716C584.169 49.6269 583.676 49.4545 583.062 49.4545C582.161 49.4545 581.451 49.8466 580.932 50.6307C580.417 51.4148 580.157 52.5152 580.153 53.9318H580.244C580.456 53.6098 580.708 53.3352 581 53.108C581.295 52.8769 581.621 52.6989 581.977 52.5739C582.333 52.4489 582.71 52.3864 583.108 52.3864C583.775 52.3864 584.384 52.553 584.938 52.8864C585.491 53.2159 585.934 53.6723 586.267 54.2557C586.6 54.8352 586.767 55.5 586.767 56.25C586.767 56.9697 586.606 57.6288 586.284 58.2273C585.962 58.822 585.509 59.2955 584.926 59.6477C584.347 59.9962 583.665 60.1667 582.881 60.1591ZM582.881 58.9091C583.358 58.9091 583.786 58.7898 584.165 58.5511C584.547 58.3125 584.848 57.9924 585.068 57.5909C585.292 57.1894 585.403 56.7424 585.403 56.25C585.403 55.7689 585.295 55.3314 585.08 54.9375C584.867 54.5398 584.574 54.2235 584.199 53.9886C583.828 53.7538 583.403 53.6364 582.926 53.6364C582.566 53.6364 582.231 53.7083 581.92 53.8523C581.61 53.9924 581.337 54.1856 581.102 54.4318C580.871 54.678 580.689 54.9602 580.557 55.2784C580.424 55.5928 580.358 55.9242 580.358 56.2727C580.358 56.7348 580.466 57.1667 580.682 57.5682C580.902 57.9697 581.201 58.2936 581.58 58.5398C581.962 58.786 582.396 58.9091 582.881 58.9091ZM594.024 53.5568V54.8068H588.933V53.5568H594.024ZM599.997 60.1591C599.33 60.1591 598.73 60.0265 598.196 59.7614C597.662 59.4962 597.234 59.1326 596.912 58.6705C596.59 58.2083 596.414 57.6818 596.384 57.0909H597.747C597.8 57.6174 598.039 58.053 598.463 58.3977C598.891 58.7386 599.402 58.9091 599.997 58.9091C600.474 58.9091 600.899 58.7973 601.27 58.5739C601.645 58.3504 601.938 58.0436 602.151 57.6534C602.366 57.2595 602.474 56.8144 602.474 56.3182C602.474 55.8106 602.363 55.358 602.139 54.9602C601.92 54.5587 601.616 54.2424 601.23 54.0114C600.844 53.7803 600.402 53.6629 599.906 53.6591C599.55 53.6553 599.185 53.7102 598.81 53.8239C598.435 53.9337 598.126 54.0758 597.884 54.25L596.565 54.0909L597.27 48.3636H603.315V49.6136H598.452L598.043 53.0455H598.111C598.349 52.8561 598.649 52.6989 599.009 52.5739C599.368 52.4489 599.743 52.3864 600.134 52.3864C600.846 52.3864 601.48 52.5568 602.037 52.8977C602.598 53.2348 603.037 53.697 603.355 54.2841C603.677 54.8712 603.838 55.5417 603.838 56.2955C603.838 57.0379 603.671 57.7008 603.338 58.2841C603.009 58.8636 602.554 59.322 601.974 59.6591C601.395 59.9924 600.736 60.1591 599.997 60.1591ZM605.822 57.6136V56.4545L610.936 48.3636H611.777V50.1591H611.209L607.345 56.2727V56.3636H614.232V57.6136H605.822ZM611.3 60V57.2614V56.7216V48.3636H612.641V60H611.3ZM620.293 60.1591C619.543 60.1591 618.874 60.0303 618.287 59.7727C617.704 59.5152 617.24 59.1572 616.895 58.6989C616.554 58.2367 616.368 57.7008 616.338 57.0909H617.77C617.8 57.4659 617.929 57.7898 618.156 58.0625C618.384 58.3314 618.681 58.5398 619.048 58.6875C619.416 58.8352 619.823 58.9091 620.27 58.9091C620.77 58.9091 621.213 58.822 621.599 58.6477C621.986 58.4735 622.289 58.2311 622.509 57.9205C622.728 57.6098 622.838 57.25 622.838 56.8409C622.838 56.4129 622.732 56.036 622.52 55.7102C622.308 55.3807 621.997 55.1231 621.588 54.9375C621.179 54.7519 620.679 54.6591 620.088 54.6591H619.156V53.4091H620.088C620.55 53.4091 620.955 53.3258 621.304 53.1591C621.656 52.9924 621.931 52.7576 622.128 52.4545C622.329 52.1515 622.429 51.7955 622.429 51.3864C622.429 50.9924 622.342 50.6496 622.168 50.358C621.993 50.0663 621.747 49.839 621.429 49.6761C621.115 49.5133 620.743 49.4318 620.315 49.4318C619.914 49.4318 619.535 49.5057 619.179 49.6534C618.827 49.7973 618.539 50.0076 618.315 50.2841C618.092 50.5568 617.971 50.8864 617.952 51.2727H616.588C616.611 50.6629 616.795 50.1288 617.139 49.6705C617.484 49.2083 617.935 48.8485 618.491 48.5909C619.052 48.3333 619.668 48.2045 620.338 48.2045C621.058 48.2045 621.675 48.3504 622.19 48.642C622.705 48.9299 623.101 49.3106 623.378 49.7841C623.654 50.2576 623.793 50.7689 623.793 51.3182C623.793 51.9735 623.62 52.5322 623.276 52.9943C622.935 53.4564 622.471 53.7765 621.884 53.9545V54.0455C622.618 54.1667 623.192 54.4792 623.605 54.983C624.018 55.483 624.224 56.1023 624.224 56.8409C624.224 57.4735 624.052 58.0417 623.707 58.5455C623.366 59.0455 622.901 59.4394 622.31 59.7273C621.719 60.0152 621.046 60.1591 620.293 60.1591ZM626.548 60V58.9773L630.389 54.7727C630.84 54.2803 631.211 53.8523 631.503 53.4886C631.795 53.1212 632.01 52.7765 632.151 52.4545C632.295 52.1288 632.366 51.7879 632.366 51.4318C632.366 51.0227 632.268 50.6686 632.071 50.3693C631.878 50.0701 631.613 49.839 631.276 49.6761C630.938 49.5133 630.56 49.4318 630.139 49.4318C629.692 49.4318 629.302 49.5246 628.969 49.7102C628.639 49.892 628.384 50.1477 628.202 50.4773C628.024 50.8068 627.935 51.1932 627.935 51.6364H626.594C626.594 50.9545 626.751 50.3561 627.065 49.8409C627.38 49.3258 627.808 48.9242 628.349 48.6364C628.895 48.3485 629.507 48.2045 630.185 48.2045C630.866 48.2045 631.471 48.3485 631.997 48.6364C632.524 48.9242 632.937 49.3125 633.236 49.8011C633.535 50.2898 633.685 50.8333 633.685 51.4318C633.685 51.8598 633.607 52.2784 633.452 52.6875C633.3 53.0928 633.035 53.5455 632.656 54.0455C632.281 54.5417 631.76 55.1477 631.094 55.8636L628.48 58.6591V58.75H633.889V60H626.548ZM448.592 67.208H449.744V67.816C449.744 70.408 446.992 72.312 444.08 72.808L443.568 71.752C446.112 71.384 448.592 69.72 448.592 67.816V67.208ZM448.928 67.208H450.064V67.816C450.064 69.72 452.56 71.384 455.088 71.752L454.592 72.808C451.664 72.312 448.928 70.408 448.928 67.816V67.208ZM448.64 74.728H449.952V80.248H448.64V74.728ZM442.8 74.024H455.872V75.112H442.8V74.024ZM444.016 66.68H454.608V67.752H444.016V66.68ZM457.519 77.272H470.623V78.376H457.519V77.272ZM463.343 73.768H464.655V77.64H463.343V73.768ZM463.311 66.744H464.463V67.864C464.463 70.952 461.503 73.336 458.591 73.944L458.031 72.84C460.575 72.376 463.311 70.248 463.311 67.864V66.744ZM463.551 66.744H464.703V67.864C464.703 70.264 467.455 72.376 469.999 72.84L469.423 73.944C466.511 73.336 463.551 70.952 463.551 67.864V66.744ZM478.142 77.5114C477.862 77.5114 477.621 77.411 477.42 77.2102C477.22 77.0095 477.119 76.7689 477.119 76.4886C477.119 76.2083 477.22 75.9678 477.42 75.767C477.621 75.5663 477.862 75.4659 478.142 75.4659C478.422 75.4659 478.663 75.5663 478.864 75.767C479.064 75.9678 479.165 76.2083 479.165 76.4886C479.165 76.6742 479.117 76.8447 479.023 77C478.932 77.1553 478.809 77.2803 478.653 77.375C478.502 77.4659 478.331 77.5114 478.142 77.5114ZM478.142 71.625C477.862 71.625 477.621 71.5246 477.42 71.3239C477.22 71.1231 477.119 70.8826 477.119 70.6023C477.119 70.322 477.22 70.0814 477.42 69.8807C477.621 69.6799 477.862 69.5795 478.142 69.5795C478.422 69.5795 478.663 69.6799 478.864 69.8807C479.064 70.0814 479.165 70.322 479.165 70.6023C479.165 70.7879 479.117 70.9583 479.023 71.1136C478.932 71.2689 478.809 71.3939 478.653 71.4886C478.502 71.5795 478.331 71.625 478.142 71.625ZM485.866 79V77.9773L492.139 68.6136H485.798V67.3636H493.821V68.3864L487.548 77.75H493.889V79H485.866ZM499.616 79.1818C498.829 79.1818 498.137 78.9943 497.543 78.6193C496.952 78.2443 496.49 77.7197 496.156 77.0455C495.827 76.3712 495.662 75.5833 495.662 74.6818C495.662 73.7727 495.827 72.9792 496.156 72.3011C496.49 71.6231 496.952 71.0966 497.543 70.7216C498.137 70.3466 498.829 70.1591 499.616 70.1591C500.404 70.1591 501.094 70.3466 501.685 70.7216C502.279 71.0966 502.741 71.6231 503.071 72.3011C503.404 72.9792 503.571 73.7727 503.571 74.6818C503.571 75.5833 503.404 76.3712 503.071 77.0455C502.741 77.7197 502.279 78.2443 501.685 78.6193C501.094 78.9943 500.404 79.1818 499.616 79.1818ZM499.616 77.9773C500.215 77.9773 500.707 77.8239 501.094 77.517C501.48 77.2102 501.766 76.8068 501.952 76.3068C502.137 75.8068 502.23 75.2652 502.23 74.6818C502.23 74.0985 502.137 73.5549 501.952 73.0511C501.766 72.5473 501.48 72.1402 501.094 71.8295C500.707 71.5189 500.215 71.3636 499.616 71.3636C499.018 71.3636 498.526 71.5189 498.139 71.8295C497.753 72.1402 497.467 72.5473 497.281 73.0511C497.096 73.5549 497.003 74.0985 497.003 74.6818C497.003 75.2652 497.096 75.8068 497.281 76.3068C497.467 76.8068 497.753 77.2102 498.139 77.517C498.526 77.8239 499.018 77.9773 499.616 77.9773ZM509.163 79.1818C508.375 79.1818 507.684 78.9943 507.089 78.6193C506.499 78.2443 506.036 77.7197 505.703 77.0455C505.374 76.3712 505.209 75.5833 505.209 74.6818C505.209 73.7727 505.374 72.9792 505.703 72.3011C506.036 71.6231 506.499 71.0966 507.089 70.7216C507.684 70.3466 508.375 70.1591 509.163 70.1591C509.951 70.1591 510.641 70.3466 511.232 70.7216C511.826 71.0966 512.288 71.6231 512.618 72.3011C512.951 72.9792 513.118 73.7727 513.118 74.6818C513.118 75.5833 512.951 76.3712 512.618 77.0455C512.288 77.7197 511.826 78.2443 511.232 78.6193C510.641 78.9943 509.951 79.1818 509.163 79.1818ZM509.163 77.9773C509.762 77.9773 510.254 77.8239 510.641 77.517C511.027 77.2102 511.313 76.8068 511.499 76.3068C511.684 75.8068 511.777 75.2652 511.777 74.6818C511.777 74.0985 511.684 73.5549 511.499 73.0511C511.313 72.5473 511.027 72.1402 510.641 71.8295C510.254 71.5189 509.762 71.3636 509.163 71.3636C508.565 71.3636 508.072 71.5189 507.686 71.8295C507.3 72.1402 507.014 72.5473 506.828 73.0511C506.643 73.5549 506.55 74.0985 506.55 74.6818C506.55 75.2652 506.643 75.8068 506.828 76.3068C507.014 76.8068 507.3 77.2102 507.686 77.517C508.072 77.8239 508.565 77.9773 509.163 77.9773ZM515.165 79V70.2727H516.46V71.6364H516.574C516.756 71.1705 517.049 70.8087 517.455 70.5511C517.86 70.2898 518.347 70.1591 518.915 70.1591C519.491 70.1591 519.97 70.2898 520.352 70.5511C520.739 70.8087 521.04 71.1705 521.256 71.6364H521.347C521.57 71.1856 521.905 70.8277 522.352 70.5625C522.799 70.2936 523.335 70.1591 523.96 70.1591C524.741 70.1591 525.379 70.4034 525.875 70.892C526.371 71.3769 526.619 72.1326 526.619 73.1591V79H525.278V73.1591C525.278 72.5152 525.102 72.0549 524.75 71.7784C524.398 71.5019 523.983 71.3636 523.506 71.3636C522.892 71.3636 522.417 71.5492 522.08 71.9205C521.742 72.2879 521.574 72.7538 521.574 73.3182V79H520.21V73.0227C520.21 72.5265 520.049 72.1269 519.727 71.8239C519.405 71.517 518.991 71.3636 518.483 71.3636C518.134 71.3636 517.809 71.4564 517.506 71.642C517.206 71.8277 516.964 72.0852 516.778 72.4148C516.597 72.7405 516.506 73.1174 516.506 73.5455V79H515.165ZM533.144 77.272H546.248V78.376H533.144V77.272ZM538.968 73.768H540.28V77.64H538.968V73.768ZM538.936 66.744H540.088V67.864C540.088 70.952 537.128 73.336 534.216 73.944L533.656 72.84C536.2 72.376 538.936 70.248 538.936 67.864V66.744ZM539.176 66.744H540.328V67.864C540.328 70.264 543.08 72.376 545.624 72.84L545.048 73.944C542.136 73.336 539.176 70.952 539.176 67.864V66.744ZM551.975 74.456H553.319V76.84H551.975V74.456ZM558.311 65.784H559.639V80.248H558.311V65.784ZM548.118 77.496L547.943 76.392C550.679 76.376 554.279 76.344 557.399 75.944L557.495 76.92C554.279 77.464 550.791 77.496 548.118 77.496ZM548.247 67.544H557.031V68.616H548.247V67.544ZM552.631 69.448C554.711 69.448 556.119 70.504 556.119 72.12C556.119 73.752 554.711 74.792 552.631 74.792C550.567 74.792 549.159 73.752 549.159 72.12C549.159 70.504 550.567 69.448 552.631 69.448ZM552.631 70.472C551.335 70.472 550.423 71.128 550.423 72.12C550.423 73.112 551.335 73.768 552.631 73.768C553.943 73.768 554.855 73.112 554.855 72.12C554.855 71.128 553.943 70.472 552.631 70.472ZM551.975 65.784H553.303V68.136H551.975V65.784ZM567.269 66.824C569.525 66.824 571.141 68.216 571.141 70.232C571.141 72.264 569.525 73.656 567.269 73.656C565.013 73.656 563.381 72.264 563.381 70.232C563.381 68.216 565.013 66.824 567.269 66.824ZM567.269 67.976C565.765 67.976 564.677 68.888 564.677 70.232C564.677 71.576 565.765 72.504 567.269 72.504C568.757 72.504 569.845 71.576 569.845 70.232C569.845 68.888 568.757 67.976 567.269 67.976ZM573.029 65.768H574.357V80.264H573.029V65.768ZM562.837 77.096L562.645 75.992C565.285 75.992 568.933 75.976 572.085 75.48L572.197 76.456C568.949 77.08 565.413 77.096 562.837 77.096ZM587.812 65.784H589.14V73.272H587.812V65.784ZM579.796 74.008H589.156V77.48H581.124V79.464H579.828V76.488H587.844V75.048H579.796V74.008ZM579.828 79.032H589.636V80.088H579.828V79.032ZM581.06 66.2H582.164V67.304C582.164 69.976 580.5 72.248 578.052 73.144L577.396 72.088C579.572 71.32 581.06 69.4 581.06 67.304V66.2ZM581.3 66.2H582.388V67.304C582.388 69.304 583.908 71.112 586.052 71.816L585.396 72.856C582.964 72.024 581.3 69.896 581.3 67.304V66.2ZM596.514 67.3636V79H595.105V68.8409H595.037L592.196 70.7273V69.2955L595.105 67.3636H596.514Z" fill="#DB9F9F"/>
</svg>
