<svg width="151" height="53" viewBox="0 0 151 53" fill="none" xmlns="http://www.w3.org/2000/svg">
<g filter="url(#filter0_d_41_36)">
<path d="M4 22.5C4 10.0736 14.0736 0 26.5 0H124.5C136.926 0 147 10.0736 147 22.5V22.5C147 34.9264 136.926 45 124.5 45H26.5C14.0736 45 4 34.9264 4 22.5V22.5Z" fill="white"/>
<path d="M26.5 1.5H124.5C136.098 1.5 145.5 10.902 145.5 22.5C145.5 34.098 136.098 43.5 124.5 43.5H26.5C14.902 43.5 5.5 34.098 5.5 22.5C5.5 10.902 14.902 1.5 26.5 1.5Z" stroke="#F25287" stroke-width="3"/>
</g>
<g filter="url(#filter1_d_41_36)">
<path d="M34.22 30V15.4545H37.7356V27.1449H43.7868V30H34.22ZM58.769 22.7273C58.769 24.3277 58.4612 25.6842 57.8457 26.7969C57.2302 27.9096 56.3968 28.7547 55.3457 29.3324C54.2993 29.91 53.1251 30.1989 51.823 30.1989C50.5162 30.1989 49.3395 29.9077 48.2931 29.3253C47.2467 28.7429 46.4158 27.8977 45.8002 26.7898C45.1895 25.6771 44.8841 24.3229 44.8841 22.7273C44.8841 21.1269 45.1895 19.7704 45.8002 18.6577C46.4158 17.545 47.2467 16.6998 48.2931 16.1222C49.3395 15.5445 50.5162 15.2557 51.823 15.2557C53.1251 15.2557 54.2993 15.5445 55.3457 16.1222C56.3968 16.6998 57.2302 17.545 57.8457 18.6577C58.4612 19.7704 58.769 21.1269 58.769 22.7273ZM55.1752 22.7273C55.1752 21.7803 55.0403 20.9801 54.7704 20.3267C54.5053 19.6733 54.1217 19.1785 53.6199 18.8423C53.1227 18.5062 52.5237 18.3381 51.823 18.3381C51.127 18.3381 50.528 18.5062 50.0261 18.8423C49.5242 19.1785 49.1383 19.6733 48.8684 20.3267C48.6033 20.9801 48.4707 21.7803 48.4707 22.7273C48.4707 23.6742 48.6033 24.4744 48.8684 25.1278C49.1383 25.7812 49.5242 26.276 50.0261 26.6122C50.528 26.9484 51.127 27.1165 51.823 27.1165C52.5237 27.1165 53.1227 26.9484 53.6199 26.6122C54.1217 26.276 54.5053 25.7812 54.7704 25.1278C55.0403 24.4744 55.1752 23.6742 55.1752 22.7273ZM70.367 20.206C70.2865 19.9077 70.1681 19.6449 70.0119 19.4176C69.8556 19.1856 69.6639 18.9891 69.4366 18.8281C69.2093 18.6671 68.9489 18.5464 68.6554 18.4659C68.3618 18.3807 68.0398 18.3381 67.6895 18.3381C66.984 18.3381 66.3732 18.5085 65.8571 18.8494C65.3457 19.1903 64.9503 19.6875 64.671 20.3409C64.3916 20.9896 64.252 21.7779 64.252 22.706C64.252 23.6387 64.3869 24.4342 64.6568 25.0923C64.9267 25.7505 65.3173 26.2524 65.8287 26.598C66.34 26.9437 66.9603 27.1165 67.6895 27.1165C68.3334 27.1165 68.8779 27.0123 69.323 26.804C69.7728 26.5909 70.1137 26.2902 70.3457 25.902C70.5777 25.5137 70.6937 25.0568 70.6937 24.5312L71.3471 24.6094H67.8102V22.0455H74.0815V23.9702C74.0815 25.2723 73.8045 26.3873 73.2505 27.3153C72.7013 28.2434 71.9437 28.956 70.9778 29.4531C70.0166 29.9503 68.911 30.1989 67.661 30.1989C66.2737 30.1989 65.0545 29.8982 64.0034 29.2969C62.9522 28.6955 62.1331 27.8385 61.546 26.7259C60.9589 25.6084 60.6653 24.2827 60.6653 22.7486C60.6653 21.5554 60.8429 20.4972 61.198 19.5739C61.5531 18.6458 62.0479 17.8598 62.6824 17.2159C63.3216 16.572 64.0602 16.0843 64.8983 15.7528C65.7411 15.4214 66.6478 15.2557 67.6184 15.2557C68.4612 15.2557 69.2449 15.3764 69.9693 15.6179C70.6984 15.8594 71.3424 16.2003 71.9011 16.6406C72.4645 17.081 72.9215 17.6042 73.2718 18.2102C73.6222 18.8163 73.84 19.4815 73.9252 20.206H70.367ZM89.8823 22.7273C89.8823 24.3277 89.5745 25.6842 88.959 26.7969C88.3435 27.9096 87.5101 28.7547 86.459 29.3324C85.4126 29.91 84.2383 30.1989 82.9363 30.1989C81.6294 30.1989 80.4528 29.9077 79.4064 29.3253C78.36 28.7429 77.5291 27.8977 76.9135 26.7898C76.3027 25.6771 75.9973 24.3229 75.9973 22.7273C75.9973 21.1269 76.3027 19.7704 76.9135 18.6577C77.5291 17.545 78.36 16.6998 79.4064 16.1222C80.4528 15.5445 81.6294 15.2557 82.9363 15.2557C84.2383 15.2557 85.4126 15.5445 86.459 16.1222C87.5101 16.6998 88.3435 17.545 88.959 18.6577C89.5745 19.7704 89.8823 21.1269 89.8823 22.7273ZM86.2885 22.7273C86.2885 21.7803 86.1536 20.9801 85.8837 20.3267C85.6185 19.6733 85.235 19.1785 84.7331 18.8423C84.236 18.5062 83.637 18.3381 82.9363 18.3381C82.2402 18.3381 81.6413 18.5062 81.1394 18.8423C80.6375 19.1785 80.2516 19.6733 79.9817 20.3267C79.7166 20.9801 79.584 21.7803 79.584 22.7273C79.584 23.6742 79.7166 24.4744 79.9817 25.1278C80.2516 25.7812 80.6375 26.276 81.1394 26.6122C81.6413 26.9484 82.2402 27.1165 82.9363 27.1165C83.637 27.1165 84.236 26.9484 84.7331 26.6122C85.235 26.276 85.6185 25.7812 85.8837 25.1278C86.1536 24.4744 86.2885 23.6742 86.2885 22.7273ZM100.735 15.4545H104.243V24.8366C104.243 25.9209 103.985 26.8655 103.469 27.6705C102.953 28.4706 102.233 29.0909 101.31 29.5312C100.387 29.9669 99.3141 30.1847 98.0925 30.1847C96.8567 30.1847 95.7772 29.9669 94.8539 29.5312C93.9306 29.0909 93.2132 28.4706 92.7019 27.6705C92.1905 26.8655 91.9348 25.9209 91.9348 24.8366V15.4545H95.4505V24.5312C95.4505 25.0331 95.5594 25.4806 95.7772 25.8736C95.9997 26.2666 96.3098 26.5743 96.7076 26.7969C97.1053 27.0194 97.5669 27.1307 98.0925 27.1307C98.6181 27.1307 99.0774 27.0194 99.4703 26.7969C99.8681 26.5743 100.178 26.2666 100.401 25.8736C100.623 25.4806 100.735 25.0331 100.735 24.5312V15.4545ZM105.971 18.3097V15.4545H118.265V18.3097H113.854V30H110.388V18.3097H105.971Z" fill="#F25287"/>
</g>
<defs>
<filter id="filter0_d_41_36" x="0" y="0" width="151" height="53" filterUnits="userSpaceOnUse" color-interpolation-filters="sRGB">
<feFlood flood-opacity="0" result="BackgroundImageFix"/>
<feColorMatrix in="SourceAlpha" type="matrix" values="0 0 0 0 0 0 0 0 0 0 0 0 0 0 0 0 0 0 127 0" result="hardAlpha"/>
<feOffset dy="4"/>
<feGaussianBlur stdDeviation="2"/>
<feComposite in2="hardAlpha" operator="out"/>
<feColorMatrix type="matrix" values="0 0 0 0 0 0 0 0 0 0 0 0 0 0 0 0 0 0 0.25 0"/>
<feBlend mode="normal" in2="BackgroundImageFix" result="effect1_dropShadow_41_36"/>
<feBlend mode="normal" in="SourceGraphic" in2="effect1_dropShadow_41_36" result="shape"/>
</filter>
<filter id="filter1_d_41_36" x="30.22" y="15.2557" width="92.0448" height="22.9432" filterUnits="userSpaceOnUse" color-interpolation-filters="sRGB">
<feFlood flood-opacity="0" result="BackgroundImageFix"/>
<feColorMatrix in="SourceAlpha" type="matrix" values="0 0 0 0 0 0 0 0 0 0 0 0 0 0 0 0 0 0 127 0" result="hardAlpha"/>
<feOffset dy="4"/>
<feGaussianBlur stdDeviation="2"/>
<feComposite in2="hardAlpha" operator="out"/>
<feColorMatrix type="matrix" values="0 0 0 0 0 0 0 0 0 0 0 0 0 0 0 0 0 0 0.25 0"/>
<feBlend mode="normal" in2="BackgroundImageFix" result="effect1_dropShadow_41_36"/>
<feBlend mode="normal" in="SourceGraphic" in2="effect1_dropShadow_41_36" result="shape"/>
</filter>
</defs>
</svg>
