<svg width="72" height="23" viewBox="0 0 72 23" fill="none" xmlns="http://www.w3.org/2000/svg">
<rect y="1" width="72" height="22" fill="#F25287"/>
<path d="M17.336 6.28H18.74V6.796C18.74 8.932 17.06 10.744 14.144 11.176L13.52 9.892C16.076 9.556 17.336 8.104 17.336 6.796V6.28ZM17.636 6.28H19.028V6.796C19.028 8.092 20.3 9.556 22.844 9.892L22.232 11.176C19.316 10.744 17.636 8.932 17.636 6.796V6.28ZM17.348 13H18.932V17.068H17.348V13ZM13.16 11.992H23.204V13.288H13.16V11.992ZM30.211 8.644H32.323V9.94H30.211V8.644ZM31.891 5.956H33.487V12.556H31.891V5.956ZM29.719 12.796C32.071 12.796 33.523 13.6 33.523 14.944C33.523 16.3 32.071 17.08 29.719 17.08C27.367 17.08 25.915 16.3 25.915 14.944C25.915 13.6 27.367 12.796 29.719 12.796ZM29.719 14.008C28.279 14.008 27.511 14.308 27.511 14.944C27.511 15.568 28.279 15.868 29.719 15.868C31.171 15.868 31.939 15.568 31.939 14.944C31.939 14.308 31.171 14.008 29.719 14.008ZM26.755 7.072H28.051V7.768C28.051 9.892 27.067 11.836 24.943 12.556L24.127 11.296C25.963 10.672 26.755 9.196 26.755 7.768V7.072ZM27.091 7.072H28.375V7.768C28.375 9.076 29.131 10.432 30.883 11.02L30.103 12.28C28.039 11.596 27.091 9.748 27.091 7.768V7.072ZM24.559 6.628H30.535V7.9H24.559V6.628ZM42.0282 11.536H43.6242V13.492H42.0282V11.536ZM37.8042 11.008H47.8482V12.268H37.8042V11.008ZM42.8082 13.06C45.2082 13.06 46.6602 13.78 46.6602 15.064C46.6602 16.348 45.2082 17.068 42.8082 17.068C40.3962 17.068 38.9442 16.348 38.9442 15.064C38.9442 13.78 40.3962 13.06 42.8082 13.06ZM42.8082 14.26C41.3202 14.26 40.5642 14.512 40.5642 15.064C40.5642 15.604 41.3202 15.868 42.8082 15.868C44.2962 15.868 45.0522 15.604 45.0522 15.064C45.0522 14.512 44.2962 14.26 42.8082 14.26ZM41.7282 7H43.1442V7.276C43.1442 8.944 41.6442 10.312 38.7762 10.576L38.2242 9.328C40.6602 9.124 41.7282 8.14 41.7282 7.276V7ZM42.5082 7H43.9242V7.276C43.9242 8.152 44.9802 9.124 47.4282 9.328L46.8762 10.576C44.0202 10.312 42.5082 8.956 42.5082 7.276V7ZM38.7162 6.412H46.9482V7.672H38.7162V6.412ZM50.1957 16.1236C49.8888 16.1236 49.6261 16.0156 49.4073 15.7997C49.1914 15.5838 49.0849 15.3224 49.0877 15.0156C49.0849 14.7145 49.1914 14.4574 49.4073 14.2443C49.6261 14.0284 49.8888 13.9205 50.1957 13.9205C50.4854 13.9205 50.7411 14.0284 50.9627 14.2443C51.1871 14.4574 51.3008 14.7145 51.3036 15.0156C51.3008 15.2202 51.2468 15.4062 51.1417 15.5739C51.0394 15.7415 50.9045 15.875 50.7369 15.9744C50.5721 16.0739 50.3917 16.1236 50.1957 16.1236ZM53.8519 16.1236C53.5451 16.1236 53.2823 16.0156 53.0636 15.7997C52.8477 15.5838 52.7411 15.3224 52.744 15.0156C52.7411 14.7145 52.8477 14.4574 53.0636 14.2443C53.2823 14.0284 53.5451 13.9205 53.8519 13.9205C54.1417 13.9205 54.3974 14.0284 54.619 14.2443C54.8434 14.4574 54.957 14.7145 54.9599 15.0156C54.957 15.2202 54.9031 15.4062 54.7979 15.5739C54.6957 15.7415 54.5607 15.875 54.3931 15.9744C54.2283 16.0739 54.0479 16.1236 53.8519 16.1236ZM57.5082 16.1236C57.2013 16.1236 56.9386 16.0156 56.7198 15.7997C56.5039 15.5838 56.3974 15.3224 56.4002 15.0156C56.3974 14.7145 56.5039 14.4574 56.7198 14.2443C56.9386 14.0284 57.2013 13.9205 57.5082 13.9205C57.7979 13.9205 58.0536 14.0284 58.2752 14.2443C58.4996 14.4574 58.6133 14.7145 58.6161 15.0156C58.6133 15.2202 58.5593 15.4062 58.4542 15.5739C58.3519 15.7415 58.217 15.875 58.0494 15.9744C57.8846 16.0739 57.7042 16.1236 57.5082 16.1236Z" fill="white"/>
</svg>
